<svg xmlns="http://www.w3.org/2000/svg" aria-hidden="true" style="position:absolute;width:0;height:0;overflow:hidden">
<defs>
<symbol id="icon-star" viewBox="0 0 32 32">
<path fill="#ffc531" stroke="#ffc531" stroke-width="2.4" d="M12.4 9.394 16 2.572l3.6 6.822a2.2 2.2 0 0 0 1.571 1.141l7.601 1.315-5.376 5.532a2.2 2.2 0 0 0-.6 1.846l1.098 7.635-6.922-3.404a2.199 2.199 0 0 0-1.941 0l-6.922 3.404 1.098-7.635a2.2 2.2 0 0 0-.6-1.846L3.231 11.85l7.601-1.315a2.202 2.202 0 0 0 1.571-1.141zm16.635 2.185zM7.767 27.031z" style="fill:var(--color1, #ffc531);stroke:var(--color1, #ffc531)"/>
</symbol>
<symbol id="icon-book" viewBox="0 0 32 32">
<path stroke-linecap="round" stroke-linejoin="round" stroke-width="3" d="M29.333 8.267c0-1.493 0-2.24-.291-2.811a2.666 2.666 0 0 0-1.165-1.165C27.306 4 26.56 4 25.066 4h-.533c-2.987 0-4.48 0-5.621.581a5.331 5.331 0 0 0-2.331 2.331C16 8.053 16 9.546 16 12.533V28l.133-.2c.926-1.389 1.389-2.084 2.001-2.587a5.345 5.345 0 0 1 1.837-.983c.758-.23 1.593-.23 3.262-.23h1.833c1.494 0 2.24 0 2.811-.291.502-.256.91-.664 1.165-1.165.291-.57.291-1.317.291-2.811V8.266zM2.667 8.267c0-1.493 0-2.24.291-2.811.256-.502.664-.91 1.165-1.165C4.693 4 5.44 4 6.934 4h.533c2.987 0 4.48 0 5.621.581a5.331 5.331 0 0 1 2.331 2.331C16 8.053 16 9.546 16 12.533V28l-.133-.2c-.926-1.389-1.389-2.084-2.001-2.587a5.345 5.345 0 0 0-1.837-.983C11.271 24 10.436 24 8.767 24H6.934c-1.493 0-2.24 0-2.811-.291a2.666 2.666 0 0 1-1.165-1.165c-.291-.57-.291-1.317-.291-2.811V8.266z"/>
</symbol>
<symbol id="icon-eye-off" viewBox="0 0 24 24">
<path d="M10.128 5.214c0.651-0.152 1.296-0.221 1.86-0.214 1.758 0 3.309 0.559 4.658 1.393 1.119 0.692 2.089 1.567 2.894 2.448 0.644 0.705 1.175 1.405 1.585 2.001 0.327 0.475 0.57 0.874 0.733 1.155-0.546 0.953-1.16 1.821-1.778 2.542-0.359 0.419-0.311 1.051 0.108 1.41s1.051 0.311 1.41-0.108c0.818-0.954 1.611-2.112 2.283-3.37 0.148-0.279 0.163-0.618 0.013-0.919 0 0-0.396-0.789-1.12-1.843-0.451-0.656-1.038-1.432-1.757-2.218-0.894-0.979-2.004-1.987-3.319-2.8-1.595-0.985-3.506-1.691-5.686-1.691-0.734-0.009-1.54 0.079-2.34 0.266-0.538 0.126-0.872 0.664-0.746 1.202s0.664 0.872 1.202 0.746zM10.027 11.442l2.531 2.531c-0.182 0.061-0.372 0.094-0.563 0.101-0.513 0.018-1.030-0.159-1.434-0.536s-0.617-0.88-0.635-1.393c-0.008-0.238 0.025-0.476 0.101-0.704zM5.983 7.397l2.553 2.553c-0.434 0.691-0.636 1.484-0.608 2.266 0.036 1.022 0.463 2.033 1.271 2.785s1.846 1.107 2.868 1.071c0.692-0.024 1.379-0.228 1.984-0.608l2.322 2.322c-1.378 0.799-2.895 1.196-4.384 1.214-1.734 0-3.285-0.559-4.634-1.393-1.119-0.692-2.089-1.567-2.894-2.448-0.644-0.705-1.175-1.405-1.585-2.001-0.326-0.475-0.57-0.873-0.732-1.154 1.050-1.822 2.376-3.379 3.841-4.607zM0.293 1.707l4.271 4.271c-1.731 1.479-3.269 3.358-4.445 5.549-0.148 0.279-0.164 0.619-0.013 0.92 0 0 0.396 0.789 1.12 1.843 0.451 0.656 1.038 1.432 1.757 2.218 0.894 0.979 2.004 1.987 3.319 2.8 1.595 0.986 3.506 1.692 5.71 1.692 1.993-0.024 4.019-0.601 5.815-1.759l4.466 4.466c0.391 0.391 1.024 0.391 1.414 0s0.391-1.024 0-1.414l-8.876-8.876c-0.002-0.002-0.005-0.005-0.007-0.007l-4.209-4.21c-0.008-0.007-0.016-0.016-0.024-0.024l-8.884-8.883c-0.391-0.391-1.024-0.391-1.414 0s-0.391 1.024 0 1.414z"></path>
</symbol>
<symbol id="icon-eye-on" viewBox="0 0 24 24">
<path d="M.106 11.553a.997.997 0 0 0 0 .894s.396.789 1.12 1.843a20.553 20.553 0 0 0 1.757 2.218c.894.979 2.004 1.987 3.319 2.8C7.897 20.294 9.808 21 12 21s4.103-.706 5.698-1.692c1.315-.813 2.425-1.821 3.319-2.8a20.678 20.678 0 0 0 1.757-2.218 17.468 17.468 0 0 0 1.12-1.843.997.997 0 0 0 0-.894s-.396-.789-1.12-1.843a20.553 20.553 0 0 0-1.757-2.218c-.894-.979-2.004-1.987-3.319-2.8C16.103 3.706 14.192 3 12 3s-4.103.706-5.698 1.692c-1.315.813-2.425 1.821-3.319 2.8A20.455 20.455 0 0 0 1.226 9.71a17.468 17.468 0 0 0-1.12 1.843zM2.14 12a18.575 18.575 0 0 1 2.319-3.159c.805-.881 1.775-1.756 2.894-2.448C8.703 5.559 10.254 5 12 5s3.297.559 4.646 1.393c1.119.692 2.089 1.567 2.894 2.448A18.701 18.701 0 0 1 21.859 12a18.575 18.575 0 0 1-2.319 3.159c-.805.881-1.775 1.756-2.894 2.448C15.297 18.441 13.746 19 12 19s-3.297-.559-4.646-1.393c-1.119-.692-2.089-1.567-2.894-2.448A18.701 18.701 0 0 1 2.14 12zM16 12c0-1.104-.449-2.106-1.172-2.828a3.994 3.994 0 0 0-5.656 0 3.994 3.994 0 0 0 0 5.656 3.994 3.994 0 0 0 5.656 0A3.994 3.994 0 0 0 16 12zm-2 0c0 .553-.223 1.051-.586 1.414S12.553 14 12 14s-1.051-.223-1.414-.586S10 12.553 10 12s.223-1.051.586-1.414S11.447 10 12 10s1.051.223 1.414.586S14 11.447 14 12z"/>
</symbol>
<symbol id="icon-heart" viewBox="0 0 32 32">
<path stroke-linecap="round" stroke-linejoin="round" stroke-width="2.462" d="M27.787 6.147a7.345 7.345 0 0 0-5.187-2.15 7.33 7.33 0 0 0-5.187 2.15L16 7.56l-1.413-1.413a7.333 7.333 0 0 0-10.374 0 7.333 7.333 0 0 0 0 10.374L16 28.308l11.787-11.787a7.326 7.326 0 0 0 0-10.373z"/>
</symbol>
<symbol id="icon-log-in" viewBox="0 0 32 32">
<path fill="none" stroke="#f4c550" stroke-linecap="round" stroke-linejoin="round" stroke-width="3.2" d="M20 4h1.6c2.24 0 3.36 0 4.216.436a3.996 3.996 0 0 1 1.748 1.748C28 7.04 28 8.16 28 10.4v11.2c0 2.24 0 3.36-.436 4.216a4.001 4.001 0 0 1-1.748 1.748C24.96 28 23.84 28 21.6 28H20M13.333 9.333 20 16m0 0-6.667 6.667M20 16H4" style="stroke:var(--color2, #f4c550)"/>
</symbol>
<symbol id="icon-online" viewBox="0 0 32 32">
<path fill="#fff" style="fill: var(--color1, #fff)" d="M32 16c0 8.837-7.163 16-16 16s-16-7.163-16-16c0-8.837 7.163-16 16-16s16 7.163 16 16z"></path>
<path fill="#38cd3e" style="fill: var(--color2, #38cd3e)" d="M26.667 16c0 5.891-4.776 10.667-10.667 10.667s-10.667-4.776-10.667-10.667c0-5.891 4.776-10.667 10.667-10.667s10.667 4.776 10.667 10.667z"></path>
</symbol>
<symbol id="icon-logo" viewBox="0 0 32 32">
<path fill="#ffda44" d="M16 32c8.837 0 16-7.163 16-16S24.837 0 16 0 0 7.163 0 16s7.163 16 16 16z" style="fill:var(--color3, #ffda44)"/>
<path fill="#338af3" d="M0 16C0 7.164 7.163 0 16 0s16 7.163 16 16z" style="fill:var(--color4, #338af3)"/>
</symbol>
<symbol id="icon-close" viewBox="0 0 32 32">
<path stroke-linejoin="round" stroke-linecap="round" stroke-miterlimit="4" stroke-width="2.5" d="M24 8l-16 16"></path>
<path stroke-linejoin="round" stroke-linecap="round" stroke-miterlimit="4" stroke-width="2.5" d="M8 8l16 16"></path>
</symbol>
<symbol id="icon-menu" viewBox="0 0 32 32">
<path d="M4.799 8.001a1.6 1.6 0 0 1 1.6-1.6h19.2a1.6 1.6 0 0 1 0 3.2h-19.2a1.6 1.6 0 0 1-1.6-1.6zM4.799 16.001a1.6 1.6 0 0 1 1.6-1.6h19.2a1.6 1.6 0 0 1 0 3.2h-19.2a1.6 1.6 0 0 1-1.6-1.6zM4.799 24.001a1.6 1.6 0 0 1 1.6-1.6h19.2a1.6 1.6 0 0 1 0 3.2h-19.2a1.6 1.6 0 0 1-1.6-1.6z"/>
</symbol>
<!-- <symbol id="icon-mac" viewBox="0 0 26 32">
<path d="M19.7 0.778c0 1.566-0.561 3.029-1.678 4.382-1.349 1.609-2.98 2.539-4.75 2.392-0.023-0.188-0.036-0.386-0.036-0.594 0-1.503 0.641-3.113 1.781-4.428 0.569-0.666 1.292-1.22 2.169-1.662 0.875-0.435 1.703-0.676 2.482-0.717 0.010 0.093 0.018 0.186 0.023 0.279 0.006 0.116 0.009 0.232 0.009 0.347z"></path>
<path d="M25.622 24.557c-0.464 1.094-1.014 2.101-1.65 3.027-0.868 1.262-1.578 2.136-2.126 2.621-0.849 0.796-1.758 1.204-2.732 1.228-0.699 0-1.542-0.203-2.523-0.615-0.985-0.41-1.889-0.613-2.717-0.613-0.868 0-1.798 0.203-2.794 0.613-0.997 0.412-1.8 0.626-2.414 0.648-0.934 0.041-1.865-0.379-2.794-1.26-0.593-0.528-1.335-1.432-2.223-2.714-0.953-1.369-1.737-2.956-2.351-4.765-0.658-1.954-0.987-3.847-0.987-5.679 0-2.099 0.444-3.909 1.335-5.426 0.7-1.219 1.63-2.18 2.795-2.885s2.424-1.065 3.779-1.088c0.742 0 1.714 0.234 2.923 0.694 1.205 0.462 1.979 0.696 2.318 0.696 0.254 0 1.113-0.274 2.571-0.819 1.378-0.506 2.541-0.716 3.494-0.633 2.582 0.213 4.522 1.251 5.812 3.123-2.309 1.428-3.452 3.428-3.429 5.993 0.021 1.998 0.731 3.661 2.127 4.981 0.633 0.613 1.339 1.086 2.126 1.423-0.171 0.505-0.35 0.988-0.542 1.452z"></path>
</symbol> -->
</defs>
</svg>